<mxfile host="Electron" modified="2024-03-15T18:17:19.477Z" agent="Mozilla/5.0 (X11; Linux x86_64) AppleWebKit/537.36 (KHTML, like Gecko) draw.io/24.0.4 Chrome/120.0.6099.109 Electron/28.1.0 Safari/537.36" etag="c7h1NIKvCZfZgKPAY5wB" version="24.0.4" type="device">
  <diagram name="Page-1" id="UGERrRTtrFB4jtHQJWO9">
    <mxGraphModel dx="880" dy="1662" grid="1" gridSize="10" guides="1" tooltips="1" connect="1" arrows="1" fold="1" page="1" pageScale="1" pageWidth="827" pageHeight="1169" math="0" shadow="0">
      <root>
        <mxCell id="0" />
        <mxCell id="1" parent="0" />
        <mxCell id="h2X1f5EoMMbDEtBi3-Ch-1" value="" style="rounded=0;whiteSpace=wrap;html=1;fillColor=none;" parent="1" vertex="1">
          <mxGeometry x="97" y="-161" width="693" height="231" as="geometry" />
        </mxCell>
        <mxCell id="cvG3VCdItDC6tDdGZ3lL-1" value="&lt;font color=&quot;#000000&quot;&gt;&lt;b&gt;172.16.0.0 /24&lt;/b&gt;&lt;/font&gt;" style="html=1;fillColor=#CCCCCC;strokeColor=#6881B3;gradientColor=none;gradientDirection=north;strokeWidth=2;shape=mxgraph.networks.bus;gradientColor=none;gradientDirection=north;fontColor=#ffffff;perimeter=backbonePerimeter;backboneSize=20;" parent="1" vertex="1">
          <mxGeometry x="295" y="-440" width="260" height="20" as="geometry" />
        </mxCell>
        <mxCell id="cvG3VCdItDC6tDdGZ3lL-2" value="" style="strokeColor=#6881B3;edgeStyle=none;rounded=0;endArrow=none;html=1;strokeWidth=2;" parent="1" source="cvG3VCdItDC6tDdGZ3lL-19" target="cvG3VCdItDC6tDdGZ3lL-1" edge="1">
          <mxGeometry relative="1" as="geometry">
            <mxPoint x="260" y="-320" as="sourcePoint" />
          </mxGeometry>
        </mxCell>
        <mxCell id="cvG3VCdItDC6tDdGZ3lL-3" value="" style="strokeColor=#6881B3;edgeStyle=none;rounded=0;endArrow=none;html=1;strokeWidth=2;" parent="1" source="cvG3VCdItDC6tDdGZ3lL-23" target="cvG3VCdItDC6tDdGZ3lL-1" edge="1">
          <mxGeometry relative="1" as="geometry">
            <mxPoint x="320" y="-320" as="sourcePoint" />
          </mxGeometry>
        </mxCell>
        <mxCell id="cvG3VCdItDC6tDdGZ3lL-6" value="" style="strokeColor=#6881B3;edgeStyle=none;rounded=0;endArrow=none;html=1;strokeWidth=2;" parent="1" source="cvG3VCdItDC6tDdGZ3lL-19" target="cvG3VCdItDC6tDdGZ3lL-18" edge="1">
          <mxGeometry relative="1" as="geometry">
            <mxPoint x="260" y="-176" as="sourcePoint" />
          </mxGeometry>
        </mxCell>
        <mxCell id="cvG3VCdItDC6tDdGZ3lL-7" value="" style="strokeColor=#6881B3;edgeStyle=none;rounded=0;endArrow=none;html=1;strokeWidth=2;" parent="1" source="cvG3VCdItDC6tDdGZ3lL-22" target="cvG3VCdItDC6tDdGZ3lL-1" edge="1">
          <mxGeometry relative="1" as="geometry">
            <mxPoint x="320" y="-180" as="sourcePoint" />
          </mxGeometry>
        </mxCell>
        <mxCell id="cvG3VCdItDC6tDdGZ3lL-12" value="wifi-ap-01" style="fontColor=#0066CC;verticalAlign=top;verticalLabelPosition=bottom;labelPosition=center;align=center;html=1;outlineConnect=0;fillColor=#CCCCCC;strokeColor=#6881B3;gradientColor=none;gradientDirection=north;strokeWidth=2;shape=mxgraph.networks.wireless_hub;points=[[0,0.7,0,0,0],[0.02,0.94,0,0,0],[0.5,0.66,0,0,0],[0.5,1,0,0,0],[0.55,0,0,0,0],[0.82,0,0,0,0],[0.98,0.94,0,0,0],[1,0.7,0,0,0]];" parent="1" vertex="1">
          <mxGeometry x="200" y="-283" width="80" height="70" as="geometry" />
        </mxCell>
        <mxCell id="cvG3VCdItDC6tDdGZ3lL-13" value="wifi-nasa-01" style="fontColor=#0066CC;verticalAlign=top;verticalLabelPosition=bottom;labelPosition=center;align=center;html=1;outlineConnect=0;fillColor=#CCCCCC;strokeColor=#6881B3;gradientColor=none;gradientDirection=north;strokeWidth=2;shape=mxgraph.networks.server_storage;" parent="1" vertex="1">
          <mxGeometry x="480" y="-263" width="60" height="60" as="geometry" />
        </mxCell>
        <mxCell id="cvG3VCdItDC6tDdGZ3lL-15" value="Cli-1" style="fontColor=#0066CC;verticalAlign=top;verticalLabelPosition=bottom;labelPosition=center;align=center;html=1;outlineConnect=0;fillColor=#CCCCCC;strokeColor=#6881B3;gradientColor=none;gradientDirection=north;strokeWidth=2;shape=mxgraph.networks.laptop;" parent="1" vertex="1">
          <mxGeometry x="117" y="-25" width="100" height="55" as="geometry" />
        </mxCell>
        <mxCell id="cvG3VCdItDC6tDdGZ3lL-16" value="Cli-2" style="fontColor=#0066CC;verticalAlign=top;verticalLabelPosition=bottom;labelPosition=center;align=center;html=1;outlineConnect=0;fillColor=#CCCCCC;strokeColor=#6881B3;gradientColor=none;gradientDirection=north;strokeWidth=2;shape=mxgraph.networks.laptop;" parent="1" vertex="1">
          <mxGeometry x="637" y="-25" width="100" height="55" as="geometry" />
        </mxCell>
        <mxCell id="cvG3VCdItDC6tDdGZ3lL-17" value="wifi-con-01" style="fontColor=#0066CC;verticalAlign=top;verticalLabelPosition=bottom;labelPosition=center;align=center;html=1;outlineConnect=0;fillColor=#CCCCCC;strokeColor=#6881B3;gradientColor=none;gradientDirection=north;strokeWidth=2;shape=mxgraph.networks.server;" parent="1" vertex="1">
          <mxGeometry x="390" y="-263" width="53" height="58" as="geometry" />
        </mxCell>
        <mxCell id="cvG3VCdItDC6tDdGZ3lL-18" value="" style="html=1;outlineConnect=0;fillColor=#CCCCCC;strokeColor=#6881B3;gradientColor=none;gradientDirection=north;strokeWidth=2;shape=mxgraph.networks.cloud;fontColor=#ffffff;" parent="1" vertex="1">
          <mxGeometry x="380" y="-660" width="90" height="50" as="geometry" />
        </mxCell>
        <mxCell id="cvG3VCdItDC6tDdGZ3lL-19" value="" style="sketch=0;points=[[0.5,0,0],[1,0.5,0],[0.5,1,0],[0,0.5,0],[0.145,0.145,0],[0.8555,0.145,0],[0.855,0.8555,0],[0.145,0.855,0]];verticalLabelPosition=bottom;html=1;verticalAlign=top;aspect=fixed;align=center;pointerEvents=1;shape=mxgraph.cisco19.rect;prIcon=router;fillColor=#FAFAFA;strokeColor=#005073;" parent="1" vertex="1">
          <mxGeometry x="390" y="-556" width="70" height="70" as="geometry" />
        </mxCell>
        <mxCell id="cvG3VCdItDC6tDdGZ3lL-22" value="" style="fontColor=#0066CC;verticalAlign=top;verticalLabelPosition=bottom;labelPosition=center;align=center;html=1;outlineConnect=0;fillColor=#CCCCCC;strokeColor=#6881B3;gradientColor=none;gradientDirection=north;strokeWidth=2;shape=mxgraph.networks.switch;" parent="1" vertex="1">
          <mxGeometry x="290" y="-333" width="100" height="30" as="geometry" />
        </mxCell>
        <mxCell id="cvG3VCdItDC6tDdGZ3lL-23" value="" style="fontColor=#0066CC;verticalAlign=top;verticalLabelPosition=bottom;labelPosition=center;align=center;html=1;outlineConnect=0;fillColor=#CCCCCC;strokeColor=#6881B3;gradientColor=none;gradientDirection=north;strokeWidth=2;shape=mxgraph.networks.switch;" parent="1" vertex="1">
          <mxGeometry x="460" y="-333" width="100" height="30" as="geometry" />
        </mxCell>
        <mxCell id="cvG3VCdItDC6tDdGZ3lL-26" value="" style="strokeColor=#6881B3;edgeStyle=none;rounded=0;endArrow=none;html=1;strokeWidth=2;entryX=0.5;entryY=0;entryDx=0;entryDy=0;entryPerimeter=0;" parent="1" source="cvG3VCdItDC6tDdGZ3lL-23" target="cvG3VCdItDC6tDdGZ3lL-17" edge="1">
          <mxGeometry relative="1" as="geometry">
            <mxPoint x="520" y="-323" as="sourcePoint" />
            <mxPoint x="520" y="-485" as="targetPoint" />
          </mxGeometry>
        </mxCell>
        <mxCell id="cvG3VCdItDC6tDdGZ3lL-27" value="" style="strokeColor=#6881B3;edgeStyle=none;rounded=0;endArrow=none;html=1;strokeWidth=2;entryX=0.5;entryY=1;entryDx=0;entryDy=0;entryPerimeter=0;" parent="1" source="cvG3VCdItDC6tDdGZ3lL-13" target="cvG3VCdItDC6tDdGZ3lL-23" edge="1">
          <mxGeometry relative="1" as="geometry">
            <mxPoint x="350" y="-323" as="sourcePoint" />
            <mxPoint x="350" y="-485" as="targetPoint" />
          </mxGeometry>
        </mxCell>
        <mxCell id="cvG3VCdItDC6tDdGZ3lL-29" value="" style="strokeColor=#6881B3;edgeStyle=none;rounded=0;endArrow=none;html=1;strokeWidth=2;exitX=0.5;exitY=0.66;exitDx=0;exitDy=0;exitPerimeter=0;entryX=0.5;entryY=1;entryDx=0;entryDy=0;entryPerimeter=0;" parent="1" source="cvG3VCdItDC6tDdGZ3lL-12" target="cvG3VCdItDC6tDdGZ3lL-22" edge="1">
          <mxGeometry relative="1" as="geometry">
            <mxPoint x="350" y="-323" as="sourcePoint" />
            <mxPoint x="350" y="-484" as="targetPoint" />
          </mxGeometry>
        </mxCell>
        <mxCell id="cvG3VCdItDC6tDdGZ3lL-30" value="wifi-ap-02" style="fontColor=#0066CC;verticalAlign=top;verticalLabelPosition=bottom;labelPosition=center;align=center;html=1;outlineConnect=0;fillColor=#CCCCCC;strokeColor=#6881B3;gradientColor=none;gradientDirection=north;strokeWidth=2;shape=mxgraph.networks.wireless_hub;points=[[0,0.7,0,0,0],[0.02,0.94,0,0,0],[0.5,0.66,0,0,0],[0.5,1,0,0,0],[0.55,0,0,0,0],[0.82,0,0,0,0],[0.98,0.94,0,0,0],[1,0.7,0,0,0]];" parent="1" vertex="1">
          <mxGeometry x="570" y="-288" width="80" height="75" as="geometry" />
        </mxCell>
        <mxCell id="cvG3VCdItDC6tDdGZ3lL-32" value="" style="strokeColor=#6881B3;edgeStyle=none;rounded=0;endArrow=none;html=1;strokeWidth=2;exitX=0.5;exitY=0.66;exitDx=0;exitDy=0;exitPerimeter=0;" parent="1" source="cvG3VCdItDC6tDdGZ3lL-30" target="cvG3VCdItDC6tDdGZ3lL-23" edge="1">
          <mxGeometry relative="1" as="geometry">
            <mxPoint x="549" y="-253" as="sourcePoint" />
            <mxPoint x="520" y="-293" as="targetPoint" />
          </mxGeometry>
        </mxCell>
        <mxCell id="cvG3VCdItDC6tDdGZ3lL-41" value=".10" style="text;html=1;align=center;verticalAlign=middle;resizable=0;points=[];autosize=1;strokeColor=none;fillColor=none;" parent="1" vertex="1">
          <mxGeometry x="390" y="-293" width="40" height="30" as="geometry" />
        </mxCell>
        <mxCell id="cvG3VCdItDC6tDdGZ3lL-42" value=".11" style="text;html=1;align=center;verticalAlign=middle;resizable=0;points=[];autosize=1;strokeColor=none;fillColor=none;" parent="1" vertex="1">
          <mxGeometry x="200" y="-265.5" width="40" height="30" as="geometry" />
        </mxCell>
        <mxCell id="cvG3VCdItDC6tDdGZ3lL-43" value=".12" style="text;html=1;align=center;verticalAlign=middle;resizable=0;points=[];autosize=1;strokeColor=none;fillColor=none;" parent="1" vertex="1">
          <mxGeometry x="630" y="-263" width="40" height="30" as="geometry" />
        </mxCell>
        <mxCell id="n-mkXnNXP8fDGp-6rKG4-1" value=".1" style="text;html=1;align=center;verticalAlign=middle;resizable=0;points=[];autosize=1;strokeColor=none;fillColor=none;" parent="1" vertex="1">
          <mxGeometry x="420" y="-492" width="30" height="30" as="geometry" />
        </mxCell>
        <mxCell id="h2X1f5EoMMbDEtBi3-Ch-2" value="" style="sketch=0;pointerEvents=1;shadow=0;dashed=0;html=1;strokeColor=none;fillColor=#434445;aspect=fixed;labelPosition=center;verticalLabelPosition=bottom;verticalAlign=top;align=center;outlineConnect=0;shape=mxgraph.vvd.wi_fi;rotation=90;" parent="1" vertex="1">
          <mxGeometry x="108" y="-151" width="50" height="50" as="geometry" />
        </mxCell>
        <mxCell id="h2X1f5EoMMbDEtBi3-Ch-3" value="SSID Eleve : 172.16.1.0 /24&lt;br&gt;SSID Edu : 172.16.2.0 /24" style="text;html=1;align=center;verticalAlign=middle;resizable=0;points=[];autosize=1;strokeColor=none;fillColor=none;" parent="1" vertex="1">
          <mxGeometry x="161" y="-143" width="170" height="40" as="geometry" />
        </mxCell>
      </root>
    </mxGraphModel>
  </diagram>
</mxfile>
